w400r0.ufo
<glyph name="_4" format="2">
  <advance width="400"/>
  <unicode hex="0104"/>
  <unicode hex="0063"/>
  <outline>
    <component base="cap" xOffset="0" yOffset="0" />
    <component base="cap" xOffset="0" yOffset="40" />
    <contour>
      <point x="0" y="0" type="line"/>
      <point x="0" y="40" type="line"/>
      <point x="400" y="40" type="line"/>
      <point x="400" y="0" type="line"/>
    </contour>
  </outline>
</glyph>
<glyph name="_6" format="2">
  <advance width="400"/>
  <unicode hex="0106"/>
  <unicode hex="0064"/>
  <outline>
    <component base="cap" xOffset="0" yOffset="0" />
    <component base="cap" xOffset="0" yOffset="60" />
    <contour>
      <point x="0" y="0" type="line"/>
      <point x="0" y="60" type="line"/>
      <point x="400" y="60" type="line"/>
      <point x="400" y="0" type="line"/>
    </contour>
  </outline>
</glyph>
<glyph name="_6" format="2">
	<unicode hex="0106"/>
	<unicode hex="0064"/>
	<advance width="400"/>
	<outline>
		<component base="cap"/>
		<component base="cap" yOffset="60"/>
		<contour>
			<point x="0" y="0" type="line"/>
			<point x="0" y="60" type="line"/>
			<point x="400" y="60" type="line"/>
			<point x="400" y="0" type="line"/>
		</contour>
	</outline>
</glyph>
<glyph name="_11" format="2">
	<unicode hex="010B"/>
	<advance width="400"/>
	<outline>
		<component base="cap"/>
		<component base="cap" yOffset="110"/>
		<contour>
			<point x="0" y="0" type="line"/>
			<point x="0" y="110" type="line"/>
			<point x="400" y="110" type="line"/>
			<point x="400" y="0" type="line"/>
		</contour>
	</outline>
</glyph>
<glyph name="_16" format="2">
  <advance width="400"/>
  <unicode hex="0110"/>
  <unicode hex="0069"/>
  <outline>
    <component base="cap" xOffset="0" yOffset="0" />
    <component base="cap" xOffset="0" yOffset="160" />
    <contour>
      <point x="0" y="0" type="line"/>
      <point x="0" y="160" type="line"/>
      <point x="400" y="160" type="line"/>
      <point x="400" y="0" type="line"/>
    </contour>
  </outline>
</glyph>
<glyph name="_20" format="2">
  <advance width="400"/>
  <unicode hex="0114"/>
  <unicode hex="0032"/><unicode hex="006B"/>
  <outline>
    <component base="cap" xOffset="0" yOffset="0" />
    <component base="cap" xOffset="0" yOffset="200" />
    <contour>
      <point x="0" y="0" type="line"/>
      <point x="0" y="200" type="line"/>
      <point x="400" y="200" type="line"/>
      <point x="400" y="0" type="line"/>
    </contour>
  </outline>
</glyph>
<glyph name="_25" format="2">
  <advance width="400"/>
  <unicode hex="0119"/>
  
  <outline>
    <component base="cap" xOffset="0" yOffset="0" />
    <component base="cap" xOffset="0" yOffset="250" />
    <contour>
      <point x="0" y="0" type="line"/>
      <point x="0" y="250" type="line"/>
      <point x="400" y="250" type="line"/>
      <point x="400" y="0" type="line"/>
    </contour>
  </outline>
</glyph>
<glyph name="_26" format="2">
  <advance width="400"/>
  <unicode hex="011A"/>
  <unicode hex="006E"/>
  <outline>
    <component base="cap" xOffset="0" yOffset="0" />
    <component base="cap" xOffset="0" yOffset="260" />
    <contour>
      <point x="0" y="0" type="line"/>
      <point x="0" y="260" type="line"/>
      <point x="400" y="260" type="line"/>
      <point x="400" y="0" type="line"/>
    </contour>
  </outline>
</glyph>
<glyph name="_44" format="2">
  <advance width="400"/>
  <unicode hex="012C"/>
  <unicode hex="0077"/>
  <outline>
    <component base="cap" xOffset="0" yOffset="0" />
    <component base="cap" xOffset="0" yOffset="440" />
    <contour>
      <point x="0" y="0" type="line"/>
      <point x="0" y="440" type="line"/>
      <point x="400" y="440" type="line"/>
      <point x="400" y="0" type="line"/>
    </contour>
  </outline>
</glyph>
<glyph name="_55" format="2">
	<unicode hex="0137"/>
	<advance width="400"/>
	<outline>
		<component base="cap"/>
		<component base="cap" yOffset="550"/>
		<contour>
			<point x="0" y="0" type="line"/>
			<point x="0" y="550" type="line"/>
			<point x="400" y="550" type="line"/>
			<point x="400" y="0" type="line"/>
		</contour>
	</outline>
</glyph>
<glyph name="_57" format="2">
	<unicode hex="0139"/>
	<advance width="400"/>
	<outline>
		<component base="cap"/>
		<component base="cap" yOffset="570"/>
		<contour>
			<point x="0" y="0" type="line"/>
			<point x="0" y="570" type="line"/>
			<point x="400" y="570" type="line"/>
			<point x="400" y="0" type="line"/>
		</contour>
	</outline>
</glyph>
<glyph name="_64" format="2">
	<unicode hex="0140"/>
	<unicode hex="0047"/>
	<advance width="400"/>
	<outline>
		<component base="cap"/>
		<component base="cap" yOffset="640"/>
		<contour>
			<point x="0" y="0" type="line"/>
			<point x="0" y="640" type="line"/>
			<point x="400" y="640" type="line"/>
			<point x="400" y="0" type="line"/>
		</contour>
	</outline>
</glyph>
<glyph name="_67" format="2">
  <advance width="400"/>
  <unicode hex="0143"/>
  
  <outline>
    <component base="cap" xOffset="0" yOffset="0" />
    <component base="cap" xOffset="0" yOffset="670" />
    <contour>
      <point x="0" y="0" type="line"/>
      <point x="0" y="670" type="line"/>
      <point x="400" y="670" type="line"/>
      <point x="400" y="0" type="line"/>
    </contour>
  </outline>
</glyph>
<glyph name="_74" format="2">
	<unicode hex="014A"/>
	<unicode hex="004C"/>
	<advance width="400"/>
	<outline>
		<component base="cap"/>
		<component base="cap" yOffset="740"/>
		<contour>
			<point x="0" y="0" type="line"/>
			<point x="0" y="740" type="line"/>
			<point x="400" y="740" type="line"/>
			<point x="400" y="0" type="line"/>
		</contour>
	</outline>
</glyph>
<glyph name="_78" format="2">
  <advance width="400"/>
  <unicode hex="014E"/>
  <unicode hex="004E"/>
  <outline>
    <component base="cap" xOffset="0" yOffset="0" />
    <component base="cap" xOffset="0" yOffset="780" />
    <contour>
      <point x="0" y="0" type="line"/>
      <point x="0" y="780" type="line"/>
      <point x="400" y="780" type="line"/>
      <point x="400" y="0" type="line"/>
    </contour>
  </outline>
</glyph>
<glyph name="_83" format="2">
  <advance width="400"/>
  <unicode hex="0153"/>
  
  <outline>
    <component base="cap" xOffset="0" yOffset="0" />
    <component base="cap" xOffset="0" yOffset="830" />
    <contour>
      <point x="0" y="0" type="line"/>
      <point x="0" y="830" type="line"/>
      <point x="400" y="830" type="line"/>
      <point x="400" y="0" type="line"/>
    </contour>
  </outline>
</glyph>
<glyph name="_88" format="2">
  <advance width="400"/>
  <unicode hex="0158"/>
  <unicode hex="0053"/>
  <outline>
    <component base="cap" xOffset="0" yOffset="0" />
    <component base="cap" xOffset="0" yOffset="880" />
    <contour>
      <point x="0" y="0" type="line"/>
      <point x="0" y="880" type="line"/>
      <point x="400" y="880" type="line"/>
      <point x="400" y="0" type="line"/>
    </contour>
  </outline>
</glyph>
<glyph name="_89" format="2">
  <advance width="400"/>
  <unicode hex="0159"/>
  
  <outline>
    <component base="cap" xOffset="0" yOffset="0" />
    <component base="cap" xOffset="0" yOffset="890" />
    <contour>
      <point x="0" y="0" type="line"/>
      <point x="0" y="890" type="line"/>
      <point x="400" y="890" type="line"/>
      <point x="400" y="0" type="line"/>
    </contour>
  </outline>
</glyph>
<glyph name="_94" format="2">
  <advance width="400"/>
  <unicode hex="015E"/>
  <unicode hex="0056"/>
  <outline>
    <component base="cap" xOffset="0" yOffset="0" />
    <component base="cap" xOffset="0" yOffset="940" />
    <contour>
      <point x="0" y="0" type="line"/>
      <point x="0" y="940" type="line"/>
      <point x="400" y="940" type="line"/>
      <point x="400" y="0" type="line"/>
    </contour>
  </outline>
</glyph>
<glyph name="_1.center" format="2">
	<unicode hex="0401"/>
	<advance width="400"/>
	<outline>
		<component base="cap" yOffset="495"/>
		<component base="cap" yOffset="505"/>
		<contour>
			<point x="0" y="495" type="line"/>
			<point x="0" y="505" type="line"/>
			<point x="400" y="505" type="line"/>
			<point x="400" y="495" type="line"/>
		</contour>
	</outline>
</glyph>
<glyph name="_6.center" format="2">
  <advance width="400"/>
  <unicode hex="0406"/>
  
  <outline>
    <component base="cap" xOffset="0" yOffset="470" />
    <component base="cap" xOffset="0" yOffset="530" />
    <contour>
      <point x="0" y="470" type="line"/>
      <point x="0" y="530" type="line"/>
      <point x="400" y="530" type="line"/>
      <point x="400" y="470" type="line"/>
    </contour>
  </outline>
</glyph>
<glyph name="_7.center" format="2">
	<unicode hex="0407"/>
	<advance width="400"/>
	<outline>
		<component base="cap" yOffset="465"/>
		<component base="cap" yOffset="535"/>
		<contour>
			<point x="0" y="465" type="line"/>
			<point x="0" y="535" type="line"/>
			<point x="400" y="535" type="line"/>
			<point x="400" y="465" type="line"/>
		</contour>
	</outline>
</glyph>
<glyph name="_9.center" format="2">
	<unicode hex="0409"/>
	<advance width="400"/>
	<outline>
		<component base="cap" yOffset="455"/>
		<component base="cap" yOffset="545"/>
		<contour>
			<point x="0" y="455" type="line"/>
			<point x="0" y="545" type="line"/>
			<point x="400" y="545" type="line"/>
			<point x="400" y="455" type="line"/>
		</contour>
	</outline>
</glyph>
<glyph name="_13.center" format="2">
  <advance width="400"/>
  <unicode hex="040D"/>
  
  <outline>
    <component base="cap" xOffset="0" yOffset="435" />
    <component base="cap" xOffset="0" yOffset="565" />
    <contour>
      <point x="0" y="435" type="line"/>
      <point x="0" y="565" type="line"/>
      <point x="400" y="565" type="line"/>
      <point x="400" y="435" type="line"/>
    </contour>
  </outline>
</glyph>
<glyph name="_14.center" format="2">
	<unicode hex="040E"/>
	<advance width="400"/>
	<outline>
		<component base="cap" yOffset="430"/>
		<component base="cap" yOffset="570"/>
		<contour>
			<point x="0" y="430" type="line"/>
			<point x="0" y="570" type="line"/>
			<point x="400" y="570" type="line"/>
			<point x="400" y="430" type="line"/>
		</contour>
	</outline>
</glyph>
<glyph name="_16.center" format="2">
  <advance width="400"/>
  <unicode hex="0410"/>
  
  <outline>
    <component base="cap" xOffset="0" yOffset="420" />
    <component base="cap" xOffset="0" yOffset="580" />
    <contour>
      <point x="0" y="420" type="line"/>
      <point x="0" y="580" type="line"/>
      <point x="400" y="580" type="line"/>
      <point x="400" y="420" type="line"/>
    </contour>
  </outline>
</glyph>
<glyph name="_26.center" format="2">
	<unicode hex="041A"/>
	<advance width="400"/>
	<outline>
		<component base="cap" yOffset="370"/>
		<component base="cap" yOffset="630"/>
		<contour>
			<point x="0" y="370" type="line"/>
			<point x="0" y="630" type="line"/>
			<point x="400" y="630" type="line"/>
			<point x="400" y="370" type="line"/>
		</contour>
	</outline>
</glyph>
<glyph name="_28.center" format="2">
  <advance width="400"/>
  <unicode hex="041C"/>
  
  <outline>
    <component base="cap" xOffset="0" yOffset="360" />
    <component base="cap" xOffset="0" yOffset="640" />
    <contour>
      <point x="0" y="360" type="line"/>
      <point x="0" y="640" type="line"/>
      <point x="400" y="640" type="line"/>
      <point x="400" y="360" type="line"/>
    </contour>
  </outline>
</glyph>
<glyph name="_29.center" format="2">
	<unicode hex="041D"/>
	<advance width="400"/>
	<outline>
		<component base="cap" yOffset="355"/>
		<component base="cap" yOffset="645"/>
		<contour>
			<point x="0" y="355" type="line"/>
			<point x="0" y="645" type="line"/>
			<point x="400" y="645" type="line"/>
			<point x="400" y="355" type="line"/>
		</contour>
	</outline>
</glyph>
<glyph name="_30.center" format="2">
  <advance width="400"/>
  <unicode hex="041E"/>
  
  <outline>
    <component base="cap" xOffset="0" yOffset="350" />
    <component base="cap" xOffset="0" yOffset="650" />
    <contour>
      <point x="0" y="350" type="line"/>
      <point x="0" y="650" type="line"/>
      <point x="400" y="650" type="line"/>
      <point x="400" y="350" type="line"/>
    </contour>
  </outline>
</glyph>
<glyph name="_32.center" format="2">
  <advance width="400"/>
  <unicode hex="0420"/>
  
  <outline>
    <component base="cap" xOffset="0" yOffset="340" />
    <component base="cap" xOffset="0" yOffset="660" />
    <contour>
      <point x="0" y="340" type="line"/>
      <point x="0" y="660" type="line"/>
      <point x="400" y="660" type="line"/>
      <point x="400" y="340" type="line"/>
    </contour>
  </outline>
</glyph>
<glyph name="_40.center" format="2">
  <advance width="400"/>
  <unicode hex="0428"/>
  
  <outline>
    <component base="cap" xOffset="0" yOffset="300" />
    <component base="cap" xOffset="0" yOffset="700" />
    <contour>
      <point x="0" y="300" type="line"/>
      <point x="0" y="700" type="line"/>
      <point x="400" y="700" type="line"/>
      <point x="400" y="300" type="line"/>
    </contour>
  </outline>
</glyph>
<glyph name="_41.center" format="2">
  <advance width="400"/>
  <unicode hex="0429"/>
  
  <outline>
    <component base="cap" xOffset="0" yOffset="295" />
    <component base="cap" xOffset="0" yOffset="705" />
    <contour>
      <point x="0" y="295" type="line"/>
      <point x="0" y="705" type="line"/>
      <point x="400" y="705" type="line"/>
      <point x="400" y="295" type="line"/>
    </contour>
  </outline>
</glyph>
<glyph name="_50.center" format="2">
  <advance width="400"/>
  <unicode hex="0432"/>
  
  <outline>
    <component base="cap" xOffset="0" yOffset="250" />
    <component base="cap" xOffset="0" yOffset="750" />
    <contour>
      <point x="0" y="250" type="line"/>
      <point x="0" y="750" type="line"/>
      <point x="400" y="750" type="line"/>
      <point x="400" y="250" type="line"/>
    </contour>
  </outline>
</glyph>
<glyph name="_60.center" format="2">
  <advance width="400"/>
  <unicode hex="043C"/>
  
  <outline>
    <component base="cap" xOffset="0" yOffset="200" />
    <component base="cap" xOffset="0" yOffset="800" />
    <contour>
      <point x="0" y="200" type="line"/>
      <point x="0" y="800" type="line"/>
      <point x="400" y="800" type="line"/>
      <point x="400" y="200" type="line"/>
    </contour>
  </outline>
</glyph>
<glyph name="_64.center" format="2">
  <advance width="400"/>
  <unicode hex="0440"/>
  
  <outline>
    <component base="cap" xOffset="0" yOffset="180" />
    <component base="cap" xOffset="0" yOffset="820" />
    <contour>
      <point x="0" y="180" type="line"/>
      <point x="0" y="820" type="line"/>
      <point x="400" y="820" type="line"/>
      <point x="400" y="180" type="line"/>
    </contour>
  </outline>
</glyph>
<glyph name="_66.center" format="2">
  <advance width="400"/>
  <unicode hex="0442"/>
  
  <outline>
    <component base="cap" xOffset="0" yOffset="170" />
    <component base="cap" xOffset="0" yOffset="830" />
    <contour>
      <point x="0" y="170" type="line"/>
      <point x="0" y="830" type="line"/>
      <point x="400" y="830" type="line"/>
      <point x="400" y="170" type="line"/>
    </contour>
  </outline>
</glyph>
<glyph name="_67.center" format="2">
	<unicode hex="0443"/>
	<advance width="400"/>
	<outline>
		<component base="cap" yOffset="165"/>
		<component base="cap" yOffset="835"/>
		<contour>
			<point x="0" y="165" type="line"/>
			<point x="0" y="835" type="line"/>
			<point x="400" y="835" type="line"/>
			<point x="400" y="165" type="line"/>
		</contour>
	</outline>
</glyph>
<glyph name="_75.center" format="2">
	<unicode hex="044B"/>
	<advance width="400"/>
	<outline>
		<component base="cap" yOffset="125"/>
		<component base="cap" yOffset="875"/>
		<contour>
			<point x="0" y="125" type="line"/>
			<point x="0" y="875" type="line"/>
			<point x="400" y="875" type="line"/>
			<point x="400" y="125" type="line"/>
		</contour>
	</outline>
</glyph>
<glyph name="_77.center" format="2">
	<unicode hex="044D"/>
	<advance width="400"/>
	<outline>
		<component base="cap" yOffset="115"/>
		<component base="cap" yOffset="885"/>
		<contour>
			<point x="0" y="115" type="line"/>
			<point x="0" y="885" type="line"/>
			<point x="400" y="885" type="line"/>
			<point x="400" y="115" type="line"/>
		</contour>
	</outline>
</glyph>
<glyph name="_82.center" format="2">
	<unicode hex="0452"/>
	<advance width="400"/>
	<outline>
		<component base="cap" yOffset="90"/>
		<component base="cap" yOffset="910"/>
		<contour>
			<point x="0" y="90" type="line"/>
			<point x="0" y="910" type="line"/>
			<point x="400" y="910" type="line"/>
			<point x="400" y="90" type="line"/>
		</contour>
	</outline>
</glyph>
<glyph name="_83.center" format="2">
	<unicode hex="0453"/>
	<advance width="400"/>
	<outline>
		<component base="cap" yOffset="85"/>
		<component base="cap" yOffset="915"/>
		<contour>
			<point x="0" y="85" type="line"/>
			<point x="0" y="915" type="line"/>
			<point x="400" y="915" type="line"/>
			<point x="400" y="85" type="line"/>
		</contour>
	</outline>
</glyph>
<glyph name="_86.center" format="2">
  <advance width="400"/>
  <unicode hex="0456"/>
  
  <outline>
    <component base="cap" xOffset="0" yOffset="70" />
    <component base="cap" xOffset="0" yOffset="930" />
    <contour>
      <point x="0" y="70" type="line"/>
      <point x="0" y="930" type="line"/>
      <point x="400" y="930" type="line"/>
      <point x="400" y="70" type="line"/>
    </contour>
  </outline>
</glyph>
<glyph name="_86.center" format="2">
	<unicode hex="0456"/>
	<advance width="400"/>
	<outline>
		<component base="cap" yOffset="70"/>
		<component base="cap" yOffset="930"/>
		<contour>
			<point x="0" y="70" type="line"/>
			<point x="0" y="930" type="line"/>
			<point x="400" y="930" type="line"/>
			<point x="400" y="70" type="line"/>
		</contour>
	</outline>
</glyph>
<glyph name="_89.center" format="2">
	<unicode hex="0459"/>
	<advance width="400"/>
	<outline>
		<component base="cap" yOffset="55"/>
		<component base="cap" yOffset="945"/>
		<contour>
			<point x="0" y="55" type="line"/>
			<point x="0" y="945" type="line"/>
			<point x="400" y="945" type="line"/>
			<point x="400" y="55" type="line"/>
		</contour>
	</outline>
</glyph>
<glyph name="_90.center" format="2">
  <advance width="400"/>
  <unicode hex="045A"/>
  
  <outline>
    <component base="cap" xOffset="0" yOffset="50" />
    <component base="cap" xOffset="0" yOffset="950" />
    <contour>
      <point x="0" y="50" type="line"/>
      <point x="0" y="950" type="line"/>
      <point x="400" y="950" type="line"/>
      <point x="400" y="50" type="line"/>
    </contour>
  </outline>
</glyph>
<glyph name="_96.center" format="2">
  <advance width="400"/>
  <unicode hex="0460"/>
  
  <outline>
    <component base="cap" xOffset="0" yOffset="20" />
    <component base="cap" xOffset="0" yOffset="980" />
    <contour>
      <point x="0" y="20" type="line"/>
      <point x="0" y="980" type="line"/>
      <point x="400" y="980" type="line"/>
      <point x="400" y="20" type="line"/>
    </contour>
  </outline>
</glyph>
<glyph name="_101.center" format="2">
  <advance width="400"/>
  <unicode hex="0465"/>
  
  <outline>
    <component base="cap" xOffset="0" yOffset="-5" />
    <component base="cap" xOffset="0" yOffset="1005" />
    <contour>
      <point x="0" y="-5" type="line"/>
      <point x="0" y="1005" type="line"/>
      <point x="400" y="1005" type="line"/>
      <point x="400" y="-5" type="line"/>
    </contour>
  </outline>
</glyph>
<glyph name="_105.center" format="2">
	<unicode hex="0469"/>
	<advance width="400"/>
	<outline>
		<component base="cap" yOffset="-25"/>
		<component base="cap" yOffset="1025"/>
		<contour>
			<point x="0" y="-25" type="line"/>
			<point x="0" y="1025" type="line"/>
			<point x="400" y="1025" type="line"/>
			<point x="400" y="-25" type="line"/>
		</contour>
	</outline>
</glyph>
<glyph name="_11.clip.center" format="2">
  <advance width="400"/>
  
  <outline>
    <contour>
        <point x="0" y="555"/>

        <point x="0" y="555"/>
        <point x="0" y="555" type="curve" smooth="yes"/>
        <point x="400" y="555" type="line"/>
        <point x="400" y="555"/>

        <point x="400" y="555"/>
        <point x="400" y="555" type="curve" smooth="yes"/>
        <point x="400" y="445" type="line"/>
        <point x="400" y="445"/>

        <point x="400" y="445"/>
        <point x="400" y="445" type="curve" smooth="yes"/>
        <point x="0" y="445" type="line"/>
        <point x="0" y="445"/>

        <point x="0" y="445"/>
        <point x="0" y="445" type="curve" smooth="yes"/>
        <point x="0" y="555" type="line"/>
    </contour>
  </outline>
</glyph>
<glyph name="_14.clip.center" format="2">
  <advance width="400"/>
  
  <outline>
    <contour>
        <point x="0.000" y="570.000"/>

        <point x="0.000" y="570.000"/>
        <point x="0.000" y="570.000" type="curve" smooth="yes"/>
        <point x="400.000" y="570.000" type="line"/>
        <point x="400.000" y="570.000"/>

        <point x="400.000" y="570.000"/>
        <point x="400.000" y="570.000" type="curve" smooth="yes"/>
        <point x="400.000" y="430.000" type="line"/>
        <point x="400.000" y="430.000"/>

        <point x="400.000" y="430.000"/>
        <point x="400.000" y="430.000" type="curve" smooth="yes"/>
        <point x="0.000" y="430.000" type="line"/>
        <point x="0.000" y="430.000"/>

        <point x="0.000" y="430.000"/>
        <point x="0.000" y="430.000" type="curve" smooth="yes"/>
        <point x="0.000" y="570.000" type="line"/>
    </contour>
  </outline>
</glyph>
<glyph name="_15.clip.center" format="2">
	<advance width="400"/>
	<outline>
		<contour>
			<point x="0" y="575"/>
			<point x="0" y="575"/>
			<point x="0" y="575" type="curve" smooth="yes"/>
			<point x="400" y="575" type="line"/>
			<point x="400" y="575"/>
			<point x="400" y="575"/>
			<point x="400" y="575" type="curve" smooth="yes"/>
			<point x="400" y="425" type="line"/>
			<point x="400" y="425"/>
			<point x="400" y="425"/>
			<point x="400" y="425" type="curve" smooth="yes"/>
			<point x="0" y="425" type="line"/>
			<point x="0" y="425"/>
			<point x="0" y="425"/>
			<point x="0" y="425" type="curve" smooth="yes"/>
			<point x="0" y="575" type="line"/>
		</contour>
	</outline>
</glyph>
<glyph name="_26.clip.center" format="2">
  <advance width="400"/>
  
  <outline>
    <contour>
        <point x="0" y="630"/>

        <point x="0" y="630"/>
        <point x="0" y="630" type="curve" smooth="yes"/>
        <point x="400" y="630" type="line"/>
        <point x="400" y="630"/>

        <point x="400" y="630"/>
        <point x="400" y="630" type="curve" smooth="yes"/>
        <point x="400" y="370" type="line"/>
        <point x="400" y="370"/>

        <point x="400" y="370"/>
        <point x="400" y="370" type="curve" smooth="yes"/>
        <point x="0" y="370" type="line"/>
        <point x="0" y="370"/>

        <point x="0" y="370"/>
        <point x="0" y="370" type="curve" smooth="yes"/>
        <point x="0" y="630" type="line"/>
    </contour>
  </outline>
</glyph>
<glyph name="_6.clip.center" format="2">
  <advance width="400"/>
  
  <outline>
    <contour>
        <point x="0" y="530"/>

        <point x="0" y="530"/>
        <point x="0" y="530" type="curve" smooth="yes"/>
        <point x="400" y="530" type="line"/>
        <point x="400" y="530"/>

        <point x="400" y="530"/>
        <point x="400" y="530" type="curve" smooth="yes"/>
        <point x="400" y="470" type="line"/>
        <point x="400" y="470"/>

        <point x="400" y="470"/>
        <point x="400" y="470" type="curve" smooth="yes"/>
        <point x="0" y="470" type="line"/>
        <point x="0" y="470"/>

        <point x="0" y="470"/>
        <point x="0" y="470" type="curve" smooth="yes"/>
        <point x="0" y="530" type="line"/>
    </contour>
  </outline>
</glyph>
